<svg xmlns="http://www.w3.org/2000/svg" version="1.1" xmlns:xlink="http://www.w3.org/1999/xlink" xmlns:svgjs="http://svgjs.dev/svgjs" width="1000" height="750" viewBox="0 0 1000 750"><rect width="1000" height="750" fill="#ed2647"></rect><g transform="matrix(0.46608140462889064,0,0,0.46608140462889064,267.2856689730313,83.23644816293489)"><svg viewBox="0 0 197 247" data-background-color="#ed2647" preserveAspectRatio="xMidYMid meet" height="1253" width="1000" xmlns="http://www.w3.org/2000/svg" xmlns:xlink="http://www.w3.org/1999/xlink"><g id="tight-bounds" transform="matrix(1,0,0,1,-0.1379483133082431,-0.09999999999999432)"><svg viewBox="0 0 197.27588739290084 247.2" height="247.2" width="197.27588739290084"><g><svg viewBox="0 0 197.27588739290084 247.2" height="247.2" width="197.27588739290084"><g><svg viewBox="0 0 197.27588739290084 247.2" height="247.2" width="197.27588739290084"><g id="textblocktransform"><svg viewBox="0 0 197.27588739290084 247.2" height="247.2" width="197.27588739290084" id="textblock"><g><svg viewBox="0 0 197.27588739290084 247.2" height="247.2" width="197.27588739290084"><g transform="matrix(1,0,0,1,0,0)"><svg width="197.27588739290084" viewBox="6.5 -36.79999923706055 32.599998474121094 40.849998474121094" height="247.2" data-palette-color="#8d021f"><path d="M39.1-26.95L39.1-26.95Q39.1-24.2 37.73-21.7 36.35-19.2 34.02-17.32 31.7-15.45 28.58-14.35 25.45-13.25 21.95-13.25L21.95-13.25Q20.7-13.25 19.98-13.58 19.25-13.9 18.35-14.85L18.35-14.85Q15.85-9.4 14.28-4.83 12.7-0.25 11.8 4.05L11.8 4.05Q9.9 3.6 8.7 2.48 7.5 1.35 6.5-0.35L6.5-0.35Q7-1.3 7.7-2.85 8.4-4.4 9.4-6.68 10.4-8.95 11.73-12.13 13.05-15.3 14.85-19.55L14.85-19.55Q15.65-21.5 16.25-22.95 16.85-24.4 17.3-25.68 17.75-26.95 18.13-28.2 18.5-29.45 18.9-30.95L18.9-30.95Q16.55-30.2 14.58-29.2 12.6-28.2 11.3-27.1L11.3-27.1Q10.85-27.4 10.38-28 9.9-28.6 9.5-29.33 9.1-30.05 8.8-30.8 8.5-31.55 8.45-32.15L8.45-32.15Q9.9-33.15 12.05-34 14.2-34.85 16.65-35.48 19.1-36.1 21.73-36.45 24.35-36.8 26.75-36.8L26.75-36.8Q29.6-36.8 31.9-36.08 34.2-35.35 35.8-34.05 37.4-32.75 38.25-30.95 39.1-29.15 39.1-26.95ZM30.2-32.95L30.2-32.95Q28.3-32.95 26.3-32.65L26.3-32.65 26.9-31.75Q26.4-31.1 25.65-29.8 24.9-28.5 24-26.68 23.1-24.85 22.03-22.6 20.95-20.35 19.75-17.85L19.75-17.85Q23.65-17.85 26.85-18.57 30.05-19.3 32.33-20.58 34.6-21.85 35.88-23.55 37.15-25.25 37.15-27.2L37.15-27.2Q37.15-29.8 35.4-31.38 33.65-32.95 30.2-32.95Z" opacity="1" transform="matrix(1,0,0,1,0,0)" fill="#8d021f" class="wordmark-text-0" data-fill-palette-color="primary" id="text-0"></path></svg></g></svg></g></svg></g></svg></g><g></g></svg></g><defs></defs></svg><rect width="197.27588739290084" height="247.2" fill="none" stroke="none" visibility="hidden"></rect></g></svg></g></svg>